{"glyphs":{"0":{"ha":789,"x_min":0,"x_max":0,"o":"m 650 769 l 390 510 l 139 510 l 139 192 l 390 192 l 650 -68 z "},"1":{"ha":1018,"x_min":0,"x_max":0,"o":"m 650 769 l 390 510 l 139 510 l 139 192 l 390 192 l 650 -68 z m 797 100 b 907 349 874 175 907 264 b 799 601 907 442 867 532 l 731 533 b 801 357 778 485 801 422 b 725 171 801 290 775 221 z "},"2":{"ha":1233,"x_min":0,"x_max":0,"o":"m 650 769 l 390 510 l 139 510 l 139 192 l 390 192 l 650 -68 z m 797 100 b 907 349 874 175 907 264 b 799 601 907 442 867 532 l 731 533 b 801 357 778 485 801 422 b 725 171 801 290 775 221 z m 958 -44 b 1122 344 1071 68 1122 207 b 954 746 1122 492 1063 638 l 881 672 b 1010 351 967 586 1010 468 b 881 32 1010 233 967 117 z "},"3":{"ha":1356,"x_min":0,"x_max":0,"o":"m 139 0 l 1217 0 l 1217 826 l 139 826 z m 715 501 l 892 501 l 892 325 l 715 325 z m 715 75 l 715 250 l 892 250 l 892 75 z m 892 751 l 892 576 l 715 576 l 715 751 z m 1142 325 l 967 325 l 967 501 l 1142 501 z m 967 75 l 967 250 l 1142 250 l 1142 75 z m 1142 576 l 967 576 l 967 751 l 1142 751 z m 214 501 l 390 501 l 390 325 l 214 325 z m 214 75 l 214 250 l 390 250 l 390 75 z m 390 751 l 390 576 l 214 576 l 214 751 z m 640 325 l 465 325 l 465 501 l 640 501 z m 465 75 l 465 250 l 640 250 l 640 75 z m 640 576 l 465 576 l 465 751 l 640 751 z "},"4":{"ha":1168,"x_min":0,"x_max":0,"o":"m 317 760 l 139 760 l 139 581 l 317 581 z m 317 504 l 139 504 l 139 324 l 317 324 z m 317 249 l 139 249 l 139 71 l 317 71 z m 1029 700 l 436 700 l 436 610 l 1029 610 z m 1029 444 l 436 444 l 436 354 l 1029 354 z m 1029 203 l 436 203 l 436 113 l 1029 113 z "},"5":{"ha":1129,"x_min":0,"x_max":0,"o":"m 372 621 l 372 826 l 139 826 l 139 621 z m 167 439 l 344 439 l 344 515 l 167 515 z m 167 244 l 344 244 l 344 321 l 167 321 z m 167 50 l 344 50 l 344 126 l 167 126 z m 681 621 l 681 826 l 447 826 l 447 621 z m 475 439 l 653 439 l 653 515 l 475 515 z m 475 244 l 653 244 l 653 321 l 475 321 z m 475 50 l 653 50 l 653 126 l 475 126 z m 990 621 l 990 826 l 757 826 l 757 621 z m 785 439 l 963 439 l 963 515 l 785 515 z m 785 244 l 963 244 l 963 321 l 785 321 z m 785 50 l 963 50 l 963 126 l 785 126 z "},"6":{"ha":1222,"x_min":0,"x_max":0,"o":"m 178 92 b 251 126 206 92 232 103 l 468 394 l 722 247 b 843 268 763 224 814 233 l 1118 607 b 1104 739 1150 647 1144 707 b 972 726 1064 772 1004 765 l 747 449 l 493 597 b 372 575 453 621 401 611 l 106 244 b 119 113 72 204 79 144 b 178 92 136 99 157 92 z "},"7":{"ha":1033,"x_min":0,"x_max":0,"o":"m 339 597 l 139 597 l 139 0 l 339 0 z m 617 444 l 417 444 l 417 0 l 617 0 z m 894 826 l 694 826 l 694 0 l 894 0 z "},"8":{"ha":1019,"x_min":0,"x_max":0,"o":"m 936 464 b 936 468 936 465 936 467 b 568 836 936 672 772 836 l 568 464 z m 451 347 l 451 721 b 83 351 247 721 83 556 b 451 -17 83 147 247 -17 b 821 351 656 -17 821 147 b 821 347 821 351 821 350 z "},"9":{"ha":935,"x_min":0,"x_max":0,"o":"m 483 96 b 546 165 518 96 546 126 b 483 175 546 171 532 175 b 421 165 464 175 421 174 b 483 96 421 126 449 96 z m 861 146 b 688 654 726 422 761 551 b 553 743 654 700 615 729 b 483 807 550 779 519 807 b 414 743 446 807 417 779 b 279 654 351 729 313 700 b 106 146 206 551 240 422 b 89 104 94 133 89 119 b 483 -37 89 7 336 -37 b 879 104 631 -37 879 7 b 861 146 879 119 872 133 z m 483 49 b 169 132 375 47 226 64 b 483 214 226 200 375 214 b 797 132 593 214 740 200 b 483 49 740 63 593 49 z "},"+":{"ha":901,"x_min":0,"x_max":0,"o":"m 564 449 l 564 692 l 365 692 l 365 449 l 111 449 l 111 257 l 365 257 l 365 0 l 564 0 l 564 257 l 818 257 l 818 449 z "},"F":{"ha":644,"x_min":0,"x_max":0,"o":"m 533 693 l 533 856 l 389 856 b 213 692 272 856 213 797 l 213 563 l 111 563 l 111 386 l 213 386 l 213 0 l 389 0 l 389 386 l 519 386 l 533 563 l 389 563 l 389 619 b 456 693 389 657 396 693 z "},"W":{"ha":1239,"x_min":0,"x_max":0,"o":"m 485 593 b 413 521 446 593 413 560 l 413 72 b 485 0 413 33 446 0 l 1028 0 b 1100 72 1068 0 1100 33 l 1100 521 b 1028 593 1100 560 1068 593 z m 989 489 l 989 104 l 524 104 l 524 489 z m 826 690 l 826 771 b 754 844 826 811 794 844 l 213 844 b 139 771 172 844 139 811 l 139 332 b 213 260 139 293 172 260 l 315 260 l 315 365 l 251 365 l 251 739 l 714 739 l 714 690 z "},"E":{"ha":1250,"x_min":0,"x_max":0,"o":"m 625 728 b 83 350 301 728 83 350 b 625 -26 83 350 301 -26 b 1167 350 949 -26 1167 350 b 625 728 1167 350 949 728 z m 625 85 b 360 350 479 85 360 204 b 625 615 360 496 479 615 b 890 350 771 615 890 496 b 625 85 890 204 771 85 z m 744 350 b 625 232 744 285 689 232 b 507 350 560 232 507 285 b 625 469 507 414 560 469 b 744 350 689 469 744 414 z "},"P":{"ha":1219,"x_min":0,"x_max":0,"o":"m 847 365 l 428 154 l 428 576 z m 226 732 b 139 644 169 736 139 706 l 139 88 b 226 0 139 29 169 0 l 992 0 b 1081 88 1054 0 1081 29 l 1081 644 b 992 732 1081 706 1054 732 z "},"S":{"ha":1135,"x_min":0,"x_max":0,"o":"m 528 -85 b 561 -121 528 -104 540 -121 b 596 -85 581 -121 596 -104 l 596 43 l 764 -21 l 781 8 l 596 121 l 596 185 l 960 185 b 1010 235 988 185 1010 207 b 960 285 1010 263 988 285 l 960 743 b 1010 793 988 743 1010 765 b 960 843 1010 821 988 843 l 592 843 l 571 897 l 558 897 l 538 843 l 175 843 b 125 793 147 843 125 821 b 171 744 125 768 144 746 l 171 285 b 125 235 144 282 125 261 b 175 185 125 207 147 185 l 528 185 l 528 121 l 344 8 l 361 -21 l 528 43 z m 896 289 l 235 289 l 235 739 l 896 739 z "},"f":{"ha":1082,"x_min":0,"x_max":0,"o":"m 1039 0 b 1039 71 1039 0 1040 35 b 713 181 1010 104 713 181 b 692 253 699 196 692 253 l 674 253 b 669 325 661 256 669 325 b 697 432 696 343 697 432 b 733 539 728 417 729 496 b 715 561 736 565 715 561 b 715 726 724 586 729 682 b 619 842 692 797 619 842 b 629 865 636 860 638 863 b 583 867 618 871 583 867 b 364 743 443 842 383 771 b 364 561 336 704 364 561 b 340 525 351 565 336 544 b 347 458 347 504 343 486 b 376 432 350 432 376 432 b 415 333 383 396 415 333 b 407 243 415 321 407 243 l 386 238 l 385 188 b 44 79 369 181 101 108 b 44 0 40 13 44 0 z "},"k":{"ha":861,"x_min":0,"x_max":0,"o":"m 308 275 b 274 128 310 176 286 176 b 42 53 182 107 88 83 b 42 0 42 22 42 0 l 819 0 b 819 64 819 0 819 39 b 551 128 764 88 647 108 l 544 140 b 572 346 517 213 531 294 b 611 372 603 326 607 361 b 633 419 617 385 619 399 b 638 472 647 442 644 456 b 614 483 632 486 614 483 b 631 524 624 496 631 524 b 639 590 672 543 639 590 b 639 643 661 618 639 643 b 613 732 676 671 660 744 b 558 888 657 797 635 872 b 439 833 515 896 439 833 b 281 886 383 857 342 894 b 228 722 164 879 228 722 b 210 638 157 697 210 638 b 204 600 174 632 204 600 b 214 535 157 554 214 535 b 229 511 201 510 229 511 b 231 481 221 501 231 481 b 206 444 204 478 200 456 b 226 390 211 438 225 407 b 261 343 231 372 246 351 b 281 351 278 336 281 351 b 308 275 281 351 308 311 z "},">":{"ha":761,"x_min":0,"x_max":0,"o":"m 139 625 l 139 53 l 706 340 z "},"p":{"ha":1513,"x_min":0,"x_max":0,"o":"m 1094 690 l 1094 882 l 719 882 l 719 690 l 111 690 l 111 590 l 1401 590 l 1401 690 z m 231 542 l 231 -1 l 458 -1 l 458 332 l 647 332 l 647 -1 l 1279 -1 l 1279 542 z m 976 269 l 814 269 l 814 465 l 976 465 z m 1189 269 l 1026 269 l 1026 465 l 1189 465 z "},"<":{"ha":761,"x_min":0,"x_max":0,"o":"m 622 53 l 622 625 l 56 338 z "},"$":{"ha":893,"x_min":0,"x_max":0,"o":"m 347 457 b 336 432 339 449 336 440 b 419 389 336 399 364 394 l 419 483 b 347 457 386 481 363 475 z m 467 189 b 553 251 526 197 553 218 b 467 290 553 281 532 285 z m 544 460 b 467 482 518 474 492 481 l 467 385 l 478 385 b 643 257 585 375 643 335 b 467 117 643 176 574 122 l 467 96 b 489 74 467 83 472 78 l 489 64 l 401 64 l 401 74 b 419 96 417 78 419 85 l 419 117 b 267 161 371 119 319 135 b 257 164 264 164 258 164 b 243 158 253 164 250 163 l 236 163 l 282 267 l 290 263 b 419 192 290 233 333 200 l 419 299 b 250 421 294 310 250 339 b 419 557 250 501 313 553 l 419 574 b 401 594 419 582 417 590 l 401 604 l 489 604 l 489 594 b 467 574 472 590 467 583 l 467 554 b 607 515 507 554 539 542 b 621 511 613 511 617 511 b 636 519 625 511 629 514 l 643 514 l 593 414 l 585 418 b 544 460 585 433 578 442 z m 590 661 l 681 860 b 650 888 681 881 668 888 l 243 888 b 213 860 225 888 213 879 l 303 661 b 83 328 174 606 83 478 b 447 -36 83 126 246 -36 b 810 328 647 -36 810 126 b 590 661 810 478 719 606 z "},"t":{"ha":1075,"x_min":0,"x_max":0,"o":"m 843 696 b 703 783 843 696 821 783 b 507 585 631 783 507 736 b 378 446 507 585 400 544 b 213 269 353 336 282 283 b 49 281 146 256 49 281 b 294 131 49 281 93 131 b 211 11 294 131 225 65 b 349 18 203 -25 239 -79 b 401 -79 349 18 338 -85 b 460 71 460 -74 486 -36 b 481 81 460 71 458 86 b 769 168 503 74 642 19 b 824 449 879 296 824 449 b 883 578 824 449 896 489 l 1031 672 l 1031 696 z m 668 636 b 724 692 668 667 693 692 b 779 636 754 692 779 667 b 724 581 779 606 754 581 b 668 636 693 581 668 606 z "},"e":{"ha":942,"x_min":0,"x_max":0,"o":"m 421 303 l 424 300 l 554 367 l 806 618 b 776 656 796 633 792 640 b 739 685 761 671 754 675 l 488 433 z m 83 -33 l 86 -37 l 581 88 l 843 351 b 846 539 843 351 875 440 l 614 307 l 528 140 l 332 103 b 224 211 294 139 269 164 l 260 408 l 426 494 l 656 722 b 472 722 561 747 472 722 l 208 460 z "},"|":{"ha":329,"x_min":0,"x_max":0,"o":"m 139 -344 l 190 -344 l 190 1046 l 139 1046 z "},"s":{"ha":956,"x_min":0,"x_max":0,"o":"m 811 288 b 900 507 871 347 900 426 b 592 815 900 674 758 815 b 282 508 424 815 282 676 b 356 306 282 436 307 364 l 215 249 l 72 104 b 56 54 61 90 56 72 b 139 -31 56 10 93 -31 b 189 -14 157 -31 174 -25 l 333 131 l 390 269 b 592 196 449 221 519 196 b 811 288 671 196 750 226 z m 457 371 b 401 507 419 408 401 457 b 592 696 401 608 488 696 b 781 507 693 696 781 610 b 592 315 781 401 694 315 b 457 371 543 315 494 335 z "},"R":{"ha":874,"x_min":0,"x_max":0,"o":"m 665 335 b 438 106 665 208 564 106 b 208 335 311 106 208 208 b 436 563 208 460 310 561 l 404 358 l 757 626 l 390 879 l 435 688 b 188 585 342 688 254 650 b 83 335 121 517 83 429 b 188 85 83 240 121 151 b 438 -19 254 17 343 -19 b 688 85 532 -19 621 17 b 790 335 754 151 790 240 z "},"u":{"ha":882,"x_min":0,"x_max":0,"o":"m 157 700 l 83 628 l 211 500 l 131 419 l 364 419 l 364 653 l 283 571 z m 157 -15 l 283 113 l 364 32 l 364 265 l 131 265 l 211 185 l 83 58 z m 726 700 l 599 572 l 518 653 l 518 419 l 751 419 l 671 500 l 799 628 z m 599 113 l 726 -15 l 799 58 l 671 185 l 751 265 l 518 265 l 518 32 z "},"v":{"ha":965,"x_min":0,"x_max":0,"o":"m 346 406 l 419 478 l 292 606 l 372 686 l 139 686 l 139 453 l 219 535 z m 346 279 l 219 151 l 139 232 l 139 -1 l 372 -1 l 292 79 l 419 206 z m 618 406 l 746 533 l 826 453 l 826 686 l 593 686 l 674 606 l 546 478 z m 746 151 l 618 279 l 546 206 l 674 79 l 593 -1 l 826 -1 l 826 232 z "},"_":{"ha":1736,"x_min":0,"x_max":0,"o":"m 139 699 l 139 -1 l 1597 -1 l 1597 699 l 139 699 z m 574 111 l 364 111 l 364 188 l 574 188 l 574 111 z m 574 306 l 364 306 l 364 381 l 574 381 l 574 306 z m 574 500 l 364 500 l 364 574 l 574 574 l 574 500 z m 1374 111 l 1164 111 l 1164 188 l 1374 188 l 1374 111 z m 1374 306 l 1164 306 l 1164 381 l 1374 381 l 1374 306 z m 1374 499 l 1164 499 l 1164 574 l 1374 574 l 1374 499 z "},"c":{"ha":1174,"x_min":0,"x_max":0,"o":"m 811 889 l 811 894 b 757 949 811 924 788 949 l 743 949 b 690 894 714 949 690 924 l 690 889 l 485 889 l 485 894 b 431 949 485 924 461 949 l 418 949 b 363 894 388 949 363 924 l 363 889 l 115 889 b 42 815 75 889 42 856 l 42 693 b 115 619 42 653 75 619 l 226 619 b 226 76 226 618 226 617 b 304 0 226 25 254 0 l 869 0 b 947 76 924 0 947 25 b 947 619 947 617 947 618 l 1058 619 b 1132 693 1099 619 1132 653 l 1132 815 b 1058 889 1132 856 1099 889 z m 454 88 b 403 136 425 88 403 110 b 454 186 403 164 425 186 b 503 136 481 186 503 164 b 454 88 503 110 481 88 z m 454 214 b 403 264 425 214 403 236 b 454 313 403 290 425 313 b 503 264 481 313 503 290 b 454 214 503 236 481 214 z m 454 342 b 403 392 425 342 403 363 b 454 440 403 418 425 440 b 503 392 481 440 503 418 b 454 342 503 363 481 342 z m 454 469 b 403 518 425 469 403 492 b 454 568 403 546 425 568 b 503 518 481 568 503 546 b 454 469 503 492 481 469 z m 588 88 b 538 136 560 88 538 110 b 588 186 538 164 560 186 b 636 136 614 186 636 164 b 588 88 636 110 614 88 z m 588 214 b 538 264 560 214 538 236 b 588 313 538 290 560 313 b 636 264 614 313 636 290 b 588 214 636 236 614 214 z m 588 342 b 538 392 560 342 538 363 b 588 440 538 418 560 440 b 636 392 614 440 636 418 b 588 342 636 363 614 342 z m 588 469 b 538 518 560 469 538 492 b 588 568 538 546 560 568 b 636 518 614 568 636 546 b 588 469 636 492 614 469 z m 721 88 b 671 136 693 88 671 110 b 721 186 671 164 693 186 b 771 136 750 186 771 164 b 721 88 771 110 750 88 z m 721 214 b 671 264 693 214 671 236 b 721 313 671 290 693 313 b 771 264 750 313 771 290 b 721 214 771 236 750 214 z m 721 342 b 671 392 693 342 671 363 b 721 440 671 418 693 440 b 771 392 750 440 771 418 b 721 342 771 363 750 342 z m 721 469 b 671 518 693 469 671 492 b 721 568 671 546 693 568 b 771 518 750 568 771 546 b 721 469 771 492 750 469 z "},"w":{"ha":1068,"x_min":0,"x_max":0,"o":"m 535 872 b 83 424 285 872 83 672 b 535 -28 83 172 285 -28 b 985 424 786 -28 985 172 b 535 872 985 672 786 872 z m 560 57 l 560 236 b 689 244 603 238 646 240 b 560 57 671 182 632 57 z m 417 147 b 379 244 400 176 388 208 b 507 236 421 240 464 238 l 507 57 b 417 147 469 57 438 97 z m 169 372 b 167 424 167 388 167 406 b 182 531 167 460 172 497 b 313 496 211 518 249 508 b 308 419 310 469 308 447 b 317 308 308 382 311 343 b 169 372 233 324 188 351 z m 358 419 b 360 490 358 444 360 465 b 507 481 407 485 457 482 l 507 285 b 367 299 460 286 414 290 b 358 419 361 336 358 379 z m 504 788 b 507 788 506 788 507 788 l 507 529 b 367 538 460 531 413 533 b 504 788 389 665 442 763 z m 596 768 b 701 538 643 725 683 638 b 560 529 654 533 608 531 l 560 788 b 596 768 569 788 583 776 z m 560 285 l 560 481 b 707 489 611 482 660 485 b 708 419 708 465 708 444 b 700 297 708 378 707 335 b 560 285 654 290 608 286 z m 756 496 b 885 529 811 501 858 518 b 901 424 896 496 901 458 b 751 307 901 364 896 331 b 758 419 756 342 758 382 b 756 496 758 447 758 469 z m 865 578 b 749 543 854 569 824 557 b 667 764 735 633 708 710 b 865 578 753 733 826 664 z m 275 681 b 401 763 313 721 354 740 b 318 544 360 707 333 633 b 203 579 236 567 215 568 b 275 681 219 615 243 651 z m 275 164 b 188 299 235 201 208 247 b 326 253 221 281 271 265 b 393 85 340 186 361 129 b 275 164 350 103 308 128 z m 793 164 b 674 85 760 128 717 103 b 742 251 707 131 726 185 b 876 293 793 263 840 276 b 793 164 858 244 832 200 z "},"g":{"ha":1597,"x_min":0,"x_max":0,"o":"m 1044 275 b 1013 139 1046 185 1026 176 b 894 149 969 138 928 140 b 749 194 817 167 749 194 b 726 269 735 210 726 269 l 708 269 b 703 346 696 272 703 346 b 733 456 732 365 733 456 b 771 569 764 442 767 525 b 750 593 774 597 750 593 b 750 765 760 619 767 719 b 650 888 726 840 650 888 b 661 913 669 907 671 910 b 613 914 649 917 613 914 b 383 785 465 888 404 814 b 383 593 354 742 383 593 b 358 554 369 597 354 575 b 364 486 364 533 361 515 b 396 456 368 456 396 456 b 436 353 404 419 436 353 b 429 258 436 342 429 258 l 407 253 l 406 201 b 106 101 389 194 165 131 b 42 3 47 72 42 3 l 778 3 l 778 0 l 1556 0 l 1556 64 b 1288 128 1500 88 1383 108 l 1281 140 b 1308 346 1253 213 1267 294 b 1347 372 1339 326 1343 361 b 1369 419 1353 385 1356 399 b 1374 472 1383 442 1381 456 b 1350 483 1368 486 1350 483 b 1367 524 1360 496 1367 524 b 1375 590 1408 543 1375 590 b 1375 643 1397 618 1375 643 b 1349 732 1413 671 1396 744 b 1294 888 1393 797 1371 872 b 1175 833 1251 896 1175 833 b 1017 886 1119 857 1078 894 b 964 722 900 879 964 722 b 946 638 893 697 946 638 b 940 600 910 632 940 600 b 950 535 893 554 950 535 b 965 511 938 510 965 511 b 967 481 957 501 967 481 b 942 444 940 478 936 456 b 963 390 947 438 961 407 b 997 343 967 372 982 351 b 1017 351 1014 336 1017 351 b 1044 275 1017 351 1044 311 z "},"K":{"ha":971,"x_min":0,"x_max":0,"o":"m 139 844 l 139 0 l 832 0 l 832 611 l 604 844 z m 239 744 l 553 744 l 553 578 l 732 578 l 732 100 l 239 100 z m 307 465 l 660 465 l 660 426 l 307 426 z m 307 354 l 660 354 l 660 315 l 307 315 z m 307 243 l 660 243 l 660 204 l 307 204 z "},"m":{"ha":1263,"x_min":0,"x_max":0,"o":"m 783 296 l 631 151 l 481 293 l 193 0 l 1069 0 z m 208 690 l 631 289 l 1053 690 z m 838 347 l 1124 51 l 1124 617 z m 139 51 l 426 346 l 139 617 z "},"X":{"ha":904,"x_min":0,"x_max":0,"o":"m 249 689 l 114 551 l 315 353 l 113 150 l 249 14 l 450 217 l 651 14 l 789 149 l 586 353 l 788 551 l 651 689 l 450 488 z "},"x":{"ha":1068,"x_min":0,"x_max":0,"o":"m 535 872 b 83 424 285 872 83 672 b 535 -28 83 172 285 -28 b 985 424 786 -28 985 172 b 535 872 985 672 786 872 z m 628 424 l 767 285 l 672 192 l 535 331 l 394 190 l 301 285 l 442 424 l 301 563 l 394 657 l 535 517 l 672 656 l 767 563 z "},"h":{"ha":1385,"x_min":0,"x_max":0,"o":"m 963 350 l 1246 526 l 1246 32 l 963 208 z m 139 1 l 897 1 l 897 557 l 139 557 z "},"T":{"ha":731,"x_min":0,"x_max":0,"o":"m 450 176 b 304 318 365 182 304 240 l 304 400 l 531 400 b 619 488 581 400 619 439 b 531 576 619 538 581 576 l 304 576 l 304 706 b 217 793 304 754 265 793 b 128 706 167 793 128 754 l 128 318 b 222 94 128 232 161 151 b 443 0 279 38 358 4 l 444 0 l 531 0 b 619 89 581 0 619 39 b 531 176 619 138 581 176 z "},"i":{"ha":1118,"x_min":0,"x_max":0,"o":"m 232 151 b 146 64 185 151 146 113 b 232 -22 146 17 185 -22 b 319 64 282 -22 319 17 b 232 151 319 113 282 151 z m 821 151 b 733 64 772 151 733 113 b 821 -22 733 17 772 -22 b 907 64 869 -22 907 17 b 821 151 907 113 869 151 z m 290 806 l 256 875 b 176 935 240 911 226 935 l 78 935 b 78 835 13 935 13 835 l 163 835 l 335 458 l 286 422 b 358 217 190 351 236 217 l 901 217 b 901 307 963 217 963 307 l 369 307 b 367 372 315 307 321 367 l 928 435 b 979 490 957 438 979 461 l 979 750 b 918 806 979 781 960 806 z m 674 728 l 696 633 l 558 633 l 529 728 z m 326 728 l 479 728 l 510 633 l 369 633 z m 447 460 l 390 583 l 522 583 l 558 471 z m 607 476 l 572 583 l 704 583 l 732 489 z m 903 508 l 778 496 l 756 583 l 903 583 z m 903 633 l 744 633 l 724 728 l 903 728 z "},"j":{"ha":1067,"x_min":0,"x_max":0,"o":"m 533 -28 l 850 288 b 956 510 924 360 956 439 b 753 711 956 631 875 711 b 533 582 639 711 600 658 b 314 711 467 658 428 711 b 111 510 192 711 111 631 b 217 288 111 439 143 360 z "},"l":{"ha":1110,"x_min":0,"x_max":0,"o":"m 968 281 b 982 417 993 303 1014 363 b 838 574 1013 535 919 574 l 818 574 b 850 693 838 611 850 661 b 714 883 850 822 776 883 b 596 769 654 883 613 842 b 431 514 594 763 539 585 l 431 550 b 399 582 431 567 415 582 l 171 582 b 139 550 154 582 139 567 l 139 15 b 171 -18 139 -3 154 -18 l 399 -18 b 431 15 415 -18 431 -3 l 431 79 b 938 154 474 39 1018 -97 b 968 281 972 179 993 231 z m 846 282 b 813 200 918 274 911 200 b 817 179 797 200 796 182 b 772 86 914 158 867 83 b 431 168 710 89 579 94 l 431 419 b 675 761 536 465 658 650 b 714 804 678 785 690 804 b 771 692 736 804 771 763 b 713 531 771 636 713 564 b 756 494 713 513 726 494 l 838 494 b 856 403 915 494 928 403 b 856 386 840 403 840 388 b 846 300 928 383 925 300 b 846 282 828 300 828 285 z "},"✎":{"ha":904,"x_min":0,"x_max":0,"o":"m 413 299 l 415 296 l 546 363 l 797 614 b 768 651 788 629 783 636 b 731 681 753 667 746 671 l 479 429 z m 75 -37 l 78 -42 l 572 83 l 835 347 b 838 535 835 347 867 436 l 606 303 l 519 136 l 324 99 b 215 207 286 135 261 160 l 251 404 l 418 490 l 647 718 b 464 718 553 743 464 718 l 200 456 z "},"!":{"ha":1101,"x_min":0,"x_max":0,"o":"m 1047 150 l 638 858 b 551 908 619 889 588 908 b 465 858 514 908 482 889 l 56 150 b 42 100 46 135 42 117 b 143 0 42 44 89 0 l 960 0 b 1060 100 1014 0 1060 42 b 1047 150 1060 117 1056 135 z m 478 675 l 626 675 l 626 343 l 478 343 z m 553 265 b 636 181 600 265 636 228 b 553 99 636 135 600 99 b 469 181 506 99 469 135 b 553 265 469 229 506 265 z "},"^":{"ha":989,"x_min":0,"x_max":0,"o":"m 343 94 b 240 196 343 150 296 196 b 139 94 185 196 139 150 b 240 -7 139 38 185 -7 b 343 94 296 -7 343 38 z m 633 0 b 144 490 633 308 401 490 l 144 358 b 494 0 339 358 494 193 z m 921 0 b 144 767 921 454 556 767 l 144 624 b 769 0 479 624 769 333 z "},"⧉":{"ha":1239,"x_min":0,"x_max":0,"o":"m 485 593 b 413 521 446 593 413 560 l 413 72 b 485 0 413 33 446 0 l 1028 0 b 1100 72 1068 0 1100 33 l 1100 521 b 1028 593 1100 560 1068 593 z m 989 489 l 989 104 l 524 104 l 524 489 z m 826 690 l 826 771 b 754 844 826 811 794 844 l 213 844 b 139 771 172 844 139 811 l 139 332 b 213 260 139 293 172 260 l 315 260 l 315 365 l 251 365 l 251 739 l 714 739 l 714 690 z "},"n":{"ha":764,"x_min":0,"x_max":0,"o":"m 590 488 l 590 672 b 382 882 590 788 497 882 b 172 672 267 882 172 788 l 172 488 b 83 275 117 433 83 358 b 382 -24 83 110 217 -24 b 681 275 546 -24 681 110 b 590 488 681 358 646 433 z m 285 672 b 382 769 285 725 328 769 b 478 672 435 769 478 725 l 478 557 b 285 557 413 579 346 579 z m 263 242 l 168 242 l 154 275 l 168 308 l 263 308 z m 321 169 l 253 101 l 219 114 l 206 147 l 274 217 z m 414 158 l 414 64 l 381 50 l 347 64 l 347 158 z m 486 217 l 554 147 l 542 114 l 507 101 l 439 169 z m 497 308 l 592 308 l 606 275 l 592 242 l 497 242 z m 439 382 l 507 450 l 542 436 l 554 403 l 486 335 z m 347 393 l 347 488 l 381 501 l 414 488 l 414 393 z m 274 335 l 206 403 l 219 438 l 253 450 l 321 382 z "},"d":{"ha":1324,"x_min":0,"x_max":0,"o":"m 1101 665 l 993 665 l 993 796 l 956 796 l 956 939 l 369 939 l 369 796 l 332 796 l 332 665 l 225 665 b 139 579 175 665 139 626 l 139 172 b 225 86 139 125 175 86 l 317 86 l 286 -83 l 1054 -83 l 1017 86 l 1101 86 b 1185 172 1146 86 1185 125 l 1185 579 b 1101 665 1185 626 1146 665 z m 408 886 l 917 886 l 917 563 l 408 563 z m 283 454 b 224 514 251 454 224 481 b 283 574 224 546 251 574 b 344 514 317 574 344 546 b 283 454 344 481 317 454 z m 353 -32 l 393 236 l 931 236 l 983 -32 z m 633 93 l 479 93 l 479 132 l 633 132 z m 853 93 l 699 93 l 699 132 l 853 132 z "},"M":{"ha":833,"x_min":0,"x_max":0,"o":"m 417 351 b 350 285 379 351 350 322 b 417 218 350 247 379 218 b 483 285 454 218 483 247 b 417 351 483 322 454 351 z m 611 918 l 222 918 b 139 835 176 918 139 881 l 139 83 b 222 0 139 38 176 0 l 611 0 b 694 83 657 0 694 38 l 694 835 b 611 918 694 881 657 918 z m 417 108 b 240 285 321 108 240 188 b 417 461 240 382 321 461 b 593 285 514 461 593 382 b 417 108 593 188 514 108 z m 608 551 l 225 551 l 225 821 l 608 821 z "},"N":{"ha":763,"x_min":0,"x_max":0,"o":"m 593 879 l 168 879 b 139 850 153 879 139 865 l 139 88 b 228 -1 139 39 179 -1 l 535 -1 b 624 88 583 -1 624 39 l 624 850 b 593 879 624 865 611 879 z m 556 738 l 556 467 l 207 467 l 207 738 z m 310 90 l 267 90 b 207 151 232 90 207 117 l 310 151 z m 310 178 l 207 178 l 207 236 l 310 236 z m 310 263 l 207 263 l 207 321 l 310 321 z m 310 347 l 207 347 l 207 406 l 310 406 z m 431 90 l 332 90 l 332 151 l 431 151 z m 431 178 l 332 178 l 332 236 l 431 236 z m 431 263 l 332 263 l 332 321 l 431 321 z m 431 347 l 332 347 l 332 406 l 431 406 z m 454 90 l 454 151 l 556 151 b 494 90 556 117 532 90 z m 556 178 l 454 178 l 454 236 l 556 236 z m 556 263 l 454 263 l 454 321 l 556 321 z m 556 347 l 454 347 l 454 406 l 556 406 z m 346 819 l 417 819 b 433 801 426 819 433 811 b 417 782 433 790 426 782 l 346 782 b 328 801 335 782 328 790 b 346 819 328 811 335 819 z "},"D":{"ha":971,"x_min":0,"x_max":0,"o":"m 139 844 l 139 0 l 832 0 l 832 611 l 604 844 z m 239 744 l 553 744 l 553 578 l 732 578 l 732 100 l 239 100 z m 674 382 l 486 164 l 297 383 l 428 383 l 425 499 l 543 499 l 543 382 z "},"b":{"ha":1140,"x_min":0,"x_max":0,"o":"m 233 825 b 139 731 169 826 139 796 l 139 303 b 233 210 139 239 169 210 l 338 210 l 268 -61 l 604 210 l 908 210 b 1001 300 972 210 1001 239 l 1001 731 b 908 825 1001 796 972 825 z m 317 650 l 824 650 l 824 558 l 317 558 z m 824 385 l 317 385 l 317 476 l 824 476 z "},"G":{"ha":1122,"x_min":0,"x_max":0,"o":"m 226 843 b 139 756 169 843 139 817 l 139 88 b 226 0 139 29 169 0 l 517 0 l 517 275 l 428 275 l 428 407 l 517 407 l 517 547 b 650 671 517 626 563 671 l 774 671 l 774 547 l 715 547 b 665 494 671 547 665 521 l 665 407 l 774 407 l 774 275 l 665 275 l 665 0 l 894 0 b 983 88 957 0 983 29 l 983 756 b 894 843 983 817 957 843 z "},"o":{"ha":1239,"x_min":0,"x_max":0,"o":"m 963 281 l 963 100 l 239 100 l 239 590 l 460 590 l 460 690 l 206 690 b 139 624 169 690 139 661 l 139 65 b 206 0 139 29 169 0 l 997 0 b 1063 65 1033 0 1063 29 l 1063 281 z m 454 250 b 496 250 468 250 496 250 b 772 507 496 506 772 507 l 732 322 l 1100 585 l 732 843 l 769 679 b 454 250 456 679 454 250 z "},"?":{"ha":1069,"x_min":0,"x_max":0,"o":"m 533 717 b 714 536 638 717 714 643 b 607 385 714 454 678 403 l 607 328 l 463 328 l 463 464 b 485 463 472 463 481 463 b 563 536 536 463 563 482 b 532 600 563 579 553 600 b 500 536 510 600 500 579 l 356 536 b 533 717 356 653 417 717 z m 535 267 b 619 181 581 267 619 226 b 535 94 619 135 581 94 b 450 181 489 94 450 135 b 535 267 450 228 489 267 z m 535 871 b 83 419 285 871 83 669 b 535 -32 83 171 285 -32 b 986 419 783 -32 986 171 b 535 871 986 669 783 871 z "},"q":{"ha":947,"x_min":0,"x_max":0,"o":"m 565 572 b 474 558 533 572 503 568 l 474 726 b 264 935 474 842 379 935 b 56 726 149 935 56 842 l 56 582 l 168 582 l 168 726 b 264 822 168 779 211 822 b 361 726 318 822 361 779 l 361 492 b 267 275 303 438 267 360 b 565 -24 267 110 401 -24 b 864 275 731 -24 864 110 b 565 572 864 439 731 572 z m 447 242 l 353 242 l 339 275 l 353 308 l 447 308 z m 506 169 l 438 101 l 404 114 l 390 147 l 458 217 z m 599 158 l 599 64 l 565 50 l 532 64 l 532 158 z m 671 217 l 739 147 l 726 114 l 692 101 l 624 169 z m 682 308 l 776 308 l 790 275 l 776 242 l 682 242 z m 624 382 l 692 450 l 726 436 l 739 403 l 671 335 z m 532 393 l 532 488 l 565 501 l 599 488 l 599 393 z m 458 335 l 390 403 l 404 438 l 438 450 l 506 382 z "},"{":{"ha":1069,"x_min":0,"x_max":0,"o":"m 535 872 b 83 421 285 872 83 671 b 535 -31 83 172 285 -31 b 986 421 783 -31 986 172 b 535 872 986 671 783 872 z m 535 69 b 182 422 340 69 182 228 b 535 774 182 617 340 774 b 886 422 729 774 886 617 b 535 69 886 228 729 69 z m 668 367 l 526 367 b 490 383 511 367 499 372 l 331 557 b 403 625 288 603 358 669 l 547 467 l 668 467 b 668 367 736 467 729 367 z m 507 686 b 533 660 507 672 519 660 b 560 686 547 660 560 672 b 533 713 560 700 547 713 b 507 686 519 713 507 700 z m 692 614 b 718 588 692 600 704 588 b 744 614 732 588 744 600 b 718 640 744 628 732 640 b 692 614 704 640 692 628 z m 774 424 b 800 397 774 410 786 397 b 826 424 814 397 826 410 b 800 450 826 438 814 450 b 774 424 786 450 774 438 z m 700 238 b 726 211 700 224 713 211 b 753 238 740 211 753 224 b 726 264 753 251 740 264 b 700 238 713 264 700 251 z m 506 157 b 532 131 506 143 518 131 b 558 157 546 131 558 143 b 532 183 558 171 546 183 b 506 157 518 183 506 171 z m 325 229 b 351 203 325 215 338 203 b 378 229 365 203 378 215 b 351 256 378 243 365 256 b 325 229 338 256 325 243 z m 242 424 b 268 397 242 410 254 397 b 294 424 282 397 294 410 b 268 450 294 438 282 450 b 242 424 254 450 242 438 z "},"[":{"ha":797,"x_min":0,"x_max":0,"o":"m 506 314 l 506 690 l 289 690 l 292 317 l 56 317 l 400 -26 l 742 314 z "},"\\":{"ha":1221,"x_min":0,"x_max":0,"o":"m 317 690 l 139 690 l 139 511 l 317 511 z m 574 690 l 394 690 l 394 511 l 574 511 z m 317 435 l 139 435 l 139 254 l 317 254 z m 574 435 l 394 435 l 394 254 l 574 254 z m 317 179 l 139 179 l 139 1 l 317 1 z m 574 179 l 394 179 l 394 1 l 574 1 z m 828 690 l 649 690 l 649 511 l 828 511 z m 1082 690 l 904 690 l 904 511 l 1082 511 z m 828 436 l 649 436 l 649 256 l 828 256 z m 828 179 l 649 179 l 649 1 l 828 1 z m 1082 436 l 904 436 l 904 256 l 1082 256 z m 1082 182 l 904 182 l 904 1 l 1082 1 z "},"]":{"ha":797,"x_min":0,"x_max":0,"o":"m 292 376 l 292 0 l 508 0 l 506 374 l 742 374 l 397 717 l 56 376 z "},"I":{"ha":1099,"x_min":0,"x_max":0,"o":"m 951 865 l 147 865 b 97 815 119 865 97 843 b 147 765 97 788 119 765 l 160 765 l 308 1 l 794 1 l 944 765 l 951 765 b 1001 815 978 765 1001 788 b 951 865 1001 843 978 865 z m 511 746 l 425 660 l 339 746 l 360 765 l 490 765 z m 296 460 l 304 468 l 390 383 l 324 317 z m 339 504 l 425 589 l 511 504 l 425 418 z m 546 468 l 632 383 l 546 297 l 461 383 z m 582 504 l 667 589 l 753 504 l 667 418 z m 546 539 l 461 625 l 546 710 l 632 625 z m 304 710 l 390 625 l 304 539 l 275 568 l 256 663 z m 425 347 l 511 261 l 425 176 l 339 261 z m 546 226 l 632 140 l 567 76 l 525 76 l 461 140 z m 667 176 l 582 261 l 667 347 l 753 261 z m 778 307 l 703 383 l 788 468 l 806 450 z m 832 582 l 788 539 l 703 625 l 788 710 l 846 653 z m 753 746 l 667 660 l 582 746 l 601 765 l 732 765 z m 244 721 l 236 765 l 289 765 z m 351 179 l 454 76 l 371 76 z m 756 193 l 732 76 l 638 76 z m 857 713 l 803 765 l 868 765 z "},"A":{"ha":1290,"x_min":0,"x_max":0,"o":"m 754 301 b 646 193 754 242 706 193 b 536 301 586 193 536 242 b 646 410 536 361 586 410 b 754 301 706 410 754 361 z m 397 704 l 397 771 l 297 771 l 297 704 l 139 704 l 139 0 l 1151 0 l 1151 704 z m 833 301 b 646 113 833 197 749 113 b 457 301 542 113 457 197 b 646 490 457 406 542 490 b 833 301 749 490 833 406 z m 1100 442 l 822 442 b 646 528 781 494 717 528 b 468 442 574 528 510 494 l 190 442 l 190 653 l 1100 653 z "},"r":{"ha":1119,"x_min":0,"x_max":0,"o":"m 1006 856 b 825 853 958 903 874 903 l 771 799 b 908 758 771 799 838 829 b 950 621 989 681 950 621 l 1001 672 b 1006 856 1054 725 1061 804 z m 907 578 b 864 715 907 578 943 638 b 847 732 856 725 856 725 l 315 200 l 360 156 l 357 93 l 329 67 l 267 50 l 200 117 l 217 178 l 797 758 b 731 756 764 765 740 758 l 183 211 l 122 -22 l 126 -26 l 360 31 z "},"B":{"ha":983,"x_min":0,"x_max":0,"o":"m 806 718 l 806 22 l 286 22 b 189 114 229 22 189 58 l 189 117 b 286 203 189 172 229 203 l 739 203 l 739 843 l 222 843 b 139 760 176 843 139 806 l 139 114 b 286 -28 139 29 204 -28 l 844 -28 l 844 718 z m 739 94 l 292 94 b 268 115 279 94 268 101 b 292 133 268 126 279 133 l 739 133 z "},"Z":{"ha":1040,"x_min":0,"x_max":0,"o":"m 913 690 l 139 690 l 139 600 l 913 600 z m 710 490 l 139 490 l 139 400 l 710 400 z m 913 290 l 139 290 l 139 200 l 913 200 z m 710 90 l 139 90 l 139 0 l 710 0 z "},"C":{"ha":1065,"x_min":0,"x_max":0,"o":"m 533 338 b 618 421 581 338 618 376 b 533 506 618 468 581 506 b 450 421 488 506 450 468 b 533 338 450 376 489 338 z m 533 464 b 576 421 558 464 576 446 b 533 379 576 396 558 379 b 492 421 508 379 492 396 b 533 464 492 446 508 464 z m 532 869 b 83 421 285 869 83 668 b 532 -28 83 172 285 -28 b 982 421 781 -28 982 172 b 532 869 982 668 781 869 z m 206 171 l 390 288 b 339 421 358 322 339 369 b 533 615 339 529 425 615 b 632 589 569 615 604 606 l 733 781 b 824 711 767 761 796 739 b 857 674 836 700 847 688 l 674 557 b 728 421 707 522 728 474 b 533 226 728 313 643 226 b 432 254 496 226 461 236 l 331 63 b 242 129 299 81 268 103 b 206 171 229 143 217 156 z "},"U":{"ha":1122,"x_min":0,"x_max":0,"o":"m 226 843 b 139 756 169 843 139 817 l 139 88 b 226 0 139 29 169 0 l 894 0 b 983 88 957 0 983 29 l 983 756 b 894 843 983 817 957 843 z m 706 272 b 771 207 742 272 771 243 b 706 140 771 169 742 140 l 611 140 b 447 211 547 143 490 168 b 379 378 401 251 379 314 l 379 650 b 444 717 379 686 407 717 b 508 650 478 717 508 686 l 508 568 l 706 568 b 771 501 742 568 771 539 b 706 436 771 465 742 436 l 508 436 l 508 378 b 615 272 508 318 553 276 z "},"a":{"ha":1343,"x_min":0,"x_max":0,"o":"m 286 825 l 286 689 l 139 689 l 139 176 b 290 0 139 51 192 0 l 1088 0 b 1204 124 1147 0 1204 58 l 1204 825 z m 286 176 b 249 82 286 113 272 82 b 214 176 229 82 214 113 l 214 614 l 286 614 z m 1129 124 b 1088 75 1129 104 1113 75 l 340 75 b 361 176 353 100 361 132 l 361 750 l 1129 750 z m 657 274 l 481 274 l 481 249 l 657 249 z m 657 194 l 481 194 l 481 169 l 657 169 z m 726 229 l 1022 229 l 1022 511 l 726 511 z m 657 429 l 481 429 l 481 404 l 657 404 z m 657 350 l 481 350 l 481 325 l 657 325 z m 657 511 l 481 511 l 481 486 l 657 486 z m 507 592 l 969 592 l 969 640 l 507 640 z "},"H":{"ha":1286,"x_min":0,"x_max":0,"o":"m 635 0 b 589 43 611 0 596 17 l 528 267 l 722 267 l 799 0 z m 1042 678 l 1042 489 l 1175 390 l 1175 775 z m 992 676 l 832 676 l 832 751 b 742 840 832 800 793 840 l 742 840 b 385 838 732 840 482 850 b 111 678 307 828 111 767 l 111 490 b 383 328 111 399 324 336 b 742 326 464 317 732 326 l 742 326 b 832 417 793 326 832 365 l 832 489 l 992 489 z m 360 458 b 279 539 315 458 279 494 b 360 619 279 583 315 619 b 440 539 404 619 440 583 b 360 458 440 494 404 458 z "},"J":{"ha":1042,"x_min":0,"x_max":0,"o":"m 833 654 l 731 714 b 808 735 751 728 776 731 b 929 765 844 739 883 744 b 1001 856 988 793 1000 829 b 979 919 1000 876 993 899 b 924 964 965 938 946 954 b 810 960 883 985 839 985 b 704 775 724 894 714 818 b 694 735 700 756 701 754 l 589 794 l 369 657 l 100 190 b 118 128 88 168 96 140 l 492 -89 b 553 -71 513 -101 540 -93 l 822 396 z m 822 942 b 914 944 847 961 881 961 b 921 940 917 943 919 942 b 979 856 956 921 979 888 b 919 786 978 828 958 803 b 806 757 878 767 839 761 b 721 736 772 754 746 753 b 724 756 724 744 722 749 b 726 772 725 761 726 765 b 822 942 733 814 744 882 z m 579 497 b 543 632 532 525 517 585 b 656 676 567 672 614 690 l 703 647 b 714 533 729 617 736 571 b 579 497 688 486 626 471 z "},"y":{"ha":988,"x_min":0,"x_max":0,"o":"m 153 274 b 608 256 278 150 486 153 l 653 131 l 797 -14 b 906 -6 831 -37 876 -35 b 914 104 936 25 939 72 l 771 249 l 643 293 b 628 747 747 414 751 624 b 153 747 496 878 285 878 b 153 274 24 617 24 404 z m 564 336 b 215 336 468 240 313 240 b 215 685 119 433 119 589 b 564 685 313 782 468 782 b 564 336 661 589 661 433 z m 242 549 l 242 478 l 353 478 l 353 367 l 428 367 l 428 478 l 538 478 l 538 549 l 428 549 l 428 661 l 353 661 l 353 549 z "},"z":{"ha":988,"x_min":0,"x_max":0,"o":"m 154 274 b 608 256 278 150 486 153 l 653 131 l 797 -14 b 906 -6 831 -37 876 -35 b 914 104 936 25 939 72 l 771 249 l 644 293 b 628 747 747 414 751 624 b 154 747 497 878 285 878 b 154 274 24 617 24 404 z m 564 336 b 215 336 469 240 313 240 b 215 685 119 432 119 589 b 564 685 313 782 469 782 b 564 336 661 589 661 432 z m 242 567 l 242 461 l 538 461 l 538 567 z "},"‘":{"ha":694,"x_min":0,"x_max":0,"o":""},"L":{"ha":1110,"x_min":0,"x_max":0,"o":"m 142 547 b 126 411 117 525 96 465 b 271 254 97 293 190 254 l 292 254 b 260 135 271 217 260 167 b 394 -56 260 4 333 -56 b 514 58 456 -56 496 -14 b 679 314 515 65 569 243 l 679 278 b 711 246 679 261 694 246 l 938 246 b 971 278 956 246 971 261 l 971 813 b 938 846 971 831 956 846 l 711 846 b 679 813 694 846 679 831 l 679 749 b 172 674 636 789 92 925 b 142 547 138 649 117 597 z m 264 544 b 296 628 192 554 197 628 b 293 649 313 628 314 646 b 338 740 196 669 243 744 b 679 660 400 739 531 733 l 679 408 b 435 67 574 363 451 176 b 394 24 432 43 418 24 b 339 136 372 24 339 65 b 396 297 339 192 396 264 b 354 333 396 315 383 333 l 271 333 b 254 425 194 333 182 425 b 254 442 269 425 269 440 b 264 528 182 444 185 528 b 264 544 282 528 282 543 z "},"O":{"ha":806,"x_min":0,"x_max":0,"o":"m 403 36 b 350 89 372 36 350 61 b 403 142 350 119 372 142 b 456 89 433 142 456 119 b 403 36 456 61 433 36 z m 232 918 b 139 828 176 918 139 881 l 139 83 b 222 0 139 38 176 0 l 583 0 b 667 83 629 0 667 38 l 667 828 b 574 918 667 881 629 918 z m 333 858 l 472 858 b 489 840 482 858 489 850 b 472 822 489 831 482 822 l 333 822 b 317 840 324 822 317 831 b 333 858 317 850 324 858 z m 617 183 l 189 183 l 189 735 l 617 735 z "},"=":{"ha":1069,"x_min":0,"x_max":0,"o":"m 604 117 l 469 117 l 469 504 l 604 504 z m 536 572 b 457 653 492 572 457 608 b 536 731 457 696 492 731 b 615 653 581 731 615 696 b 536 572 615 607 581 572 z m 535 871 b 83 419 285 871 83 669 b 535 -32 83 171 285 -32 b 986 419 783 -32 986 171 b 535 871 986 669 783 871 z "},",":{"ha":757,"x_min":0,"x_max":0,"o":"m 683 626 b 382 924 683 792 547 924 b 83 626 215 924 83 792 b 231 314 83 511 129 456 b 376 -17 353 135 376 -17 b 393 -17 379 -29 390 -29 b 536 314 393 -17 411 135 b 683 626 594 399 683 511 z m 385 503 b 272 621 324 503 272 557 b 385 735 272 685 324 735 b 500 621 450 735 500 685 b 385 503 500 557 450 503 z "},"V":{"ha":1215,"x_min":0,"x_max":0,"o":"m 210 758 l 628 758 l 711 844 l 110 844 l 110 0 l 803 0 l 803 503 l 703 390 l 703 100 l 210 100 z m 1042 958 b 904 957 1004 996 943 996 l 842 894 l 924 913 l 994 842 l 975 758 l 1039 821 b 1042 958 1078 861 1081 921 z m 799 849 l 386 425 l 340 250 l 343 249 l 519 289 l 932 715 b 957 799 932 715 953 799 l 883 875 l 882 874 b 799 849 871 871 799 851 z m 524 379 l 518 340 l 493 315 l 450 306 l 399 356 l 410 400 l 435 424 l 474 431 z "},"ˆ":{"ha":694,"x_min":0,"x_max":0,"o":""},"Q":{"ha":1068,"x_min":0,"x_max":0,"o":"m 819 972 l 249 972 b 139 861 188 972 139 922 l 139 111 b 249 0 139 50 188 0 l 819 0 b 929 111 881 0 929 50 l 929 861 b 819 972 929 922 881 972 z m 796 172 l 272 172 l 272 839 l 796 839 z m 535 36 b 482 89 504 36 482 61 b 535 142 482 119 504 142 b 588 89 565 142 588 119 b 535 36 588 61 565 36 z "},"`":{"ha":1060,"x_min":0,"x_max":0,"o":"m 526 865 b 590 929 563 865 590 894 b 526 993 590 964 563 993 b 463 929 492 993 463 964 b 526 865 463 894 492 865 z m 890 39 l 582 832 l 536 864 l 518 864 l 471 832 l 163 39 b 192 -26 153 13 165 -17 b 210 -29 197 -29 203 -29 b 256 3 229 -29 249 -18 l 271 42 l 529 42 l 529 42 l 529 42 l 782 42 l 797 3 b 843 -29 804 -18 824 -29 b 861 -26 850 -29 856 -29 b 890 39 888 -17 900 13 z m 692 274 l 650 233 l 564 318 l 643 397 z m 526 699 l 604 497 l 449 497 z m 624 447 l 529 354 l 435 447 z m 411 401 l 494 318 l 408 233 l 363 278 z m 290 92 l 343 226 l 479 92 z m 529 111 l 443 197 l 529 283 l 615 197 z m 579 92 l 711 224 l 763 92 z m 763 739 b 825 879 806 781 825 831 b 764 1022 825 932 800 982 l 725 983 b 765 885 751 956 765 918 b 721 779 765 847 750 807 z m 911 658 b 1004 876 976 721 1003 800 b 910 1101 1003 958 972 1040 l 868 1061 b 940 881 917 1013 942 947 b 868 701 942 813 917 749 z m 299 1026 b 235 885 254 983 235 933 b 296 743 235 833 258 781 l 335 782 b 294 881 308 808 294 844 b 339 985 294 917 310 957 z m 149 1107 b 56 888 83 1043 57 964 b 150 661 57 806 88 724 l 192 704 b 118 883 143 753 118 817 b 192 1063 118 951 143 1015 z "},"}":{"ha":1069,"x_min":0,"x_max":0,"o":"m 535 872 b 83 421 285 872 83 671 b 535 -31 83 172 285 -31 b 986 421 783 -31 986 172 b 535 872 986 671 783 872 z m 535 69 b 182 422 340 69 182 228 b 535 774 182 617 340 774 b 886 422 729 774 886 617 b 535 69 886 228 729 69 z m 654 367 l 526 367 b 490 383 511 367 499 372 l 344 543 b 417 611 301 589 372 656 l 547 467 l 654 467 b 654 367 722 467 715 367 z "},"-":{"ha":761,"x_min":0,"x_max":0,"o":"m 76 83 l 676 83 l 375 608 z "},"Y":{"ha":1474,"x_min":0,"x_max":0,"o":"m 335 444 l 224 444 b 204 464 214 444 204 454 b 224 482 204 474 214 482 l 335 482 b 353 464 344 482 353 474 b 335 444 353 454 344 444 z m 335 364 l 224 364 b 204 383 214 364 204 374 b 224 401 204 393 214 401 l 335 401 b 353 383 344 401 353 393 b 335 364 353 374 344 364 z m 568 349 l 568 492 b 890 632 700 492 804 540 l 890 214 b 568 349 803 301 700 349 z m 1121 593 l 1274 746 l 1236 782 l 1083 631 z m 1149 399 l 1404 399 l 1404 451 l 1149 451 z m 1083 208 l 1236 57 l 1274 93 l 1121 246 z m 942 782 b 903 744 919 782 903 765 b 550 553 838 660 722 553 l 181 553 b 83 422 181 553 83 506 b 181 286 83 339 181 286 l 285 286 l 478 -25 b 540 -44 492 -42 517 -57 l 635 24 l 479 286 l 550 286 b 903 103 722 286 838 183 b 942 65 903 82 919 65 b 982 103 964 65 982 82 l 982 744 b 942 782 982 765 964 782 z "},"#":{"ha":1438,"x_min":0,"x_max":0,"o":"m 88 393 b 304 -72 160 238 232 83 b 1339 410 749 -37 924 410 b 1122 875 1267 565 1193 721 b 88 393 707 874 503 393 z m 221 319 b 536 469 340 340 440 400 b 558 283 528 406 532 342 b 676 168 582 233 622 189 b 363 17 581 97 481 39 b 221 319 315 118 268 218 z m 1206 483 b 889 333 1086 463 985 404 b 867 519 899 397 893 461 b 749 633 843 568 804 614 b 1064 786 844 706 946 764 b 1206 483 1111 686 1157 585 z m 475 144 b 475 144 475 144 475 144 b 451 138 468 140 460 139 b 444 182 449 153 446 167 b 456 185 449 182 453 183 b 475 144 463 171 468 158 z m 506 169 b 469 196 493 178 481 188 b 475 207 471 199 474 203 b 518 193 489 201 503 197 b 506 169 514 185 510 176 z m 413 144 b 389 157 404 146 396 151 b 418 189 399 168 408 178 b 428 183 419 188 424 185 b 413 144 422 171 418 158 z m 519 233 b 476 224 506 229 493 226 b 474 235 476 228 476 232 b 474 236 474 235 474 235 b 513 258 488 243 500 250 b 513 258 513 258 513 258 b 514 258 513 258 513 258 b 519 233 517 250 518 242 z m 365 188 b 365 188 365 188 365 188 b 357 213 361 196 358 204 b 404 214 372 213 389 213 b 407 204 404 210 406 208 b 365 188 393 197 381 193 z m 463 249 b 453 254 460 250 456 253 b 468 297 457 269 463 283 b 489 286 475 296 482 292 b 463 249 481 274 471 261 z m 406 231 b 364 247 393 236 378 242 b 376 269 367 257 369 263 b 411 242 389 260 400 250 b 406 231 410 238 408 233 z m 436 256 b 425 251 432 254 429 254 b 425 251 425 251 425 251 b 406 293 418 265 413 279 b 415 272 410 285 411 281 b 406 293 411 281 410 285 b 406 293 406 293 406 293 b 406 293 406 293 406 293 b 431 300 414 296 422 299 b 436 256 432 285 435 271 z m 969 518 b 947 506 960 514 956 511 b 900 610 931 540 917 575 b 921 622 907 615 913 618 b 969 518 938 588 954 554 z m 1067 565 b 1044 557 1058 561 1054 560 b 996 658 1029 590 1013 625 b 1018 668 1006 663 1010 665 b 1067 565 1033 633 1051 599 z m 1018 543 b 996 533 1008 539 1004 536 b 947 636 981 568 964 603 b 968 647 956 640 960 643 b 1018 543 985 613 1001 579 z "}," ":{"ha":417,"x_min":0,"x_max":0,"o":""},"@":{"ha":1026,"x_min":0,"x_max":0,"o":"m 943 643 b 867 757 926 686 900 725 b 551 875 790 833 678 875 b 364 840 485 875 422 864 b 217 747 308 819 258 788 b 88 421 132 665 88 553 b 225 78 88 282 135 160 b 524 -29 301 7 404 -29 b 803 26 636 -29 726 -11 l 810 29 l 810 136 l 793 128 b 525 76 711 92 631 76 b 297 167 433 76 356 108 b 203 413 238 229 203 317 b 315 685 203 526 243 619 b 553 769 378 740 460 769 b 785 685 650 769 729 742 b 860 489 833 636 860 569 b 746 286 860 422 831 286 b 724 294 735 286 728 289 b 714 343 715 303 713 319 l 733 631 l 639 631 l 631 601 b 531 643 606 626 569 643 b 374 572 465 643 411 618 b 319 408 338 531 319 472 b 365 251 319 344 335 290 b 501 188 396 208 444 188 b 628 249 551 188 599 211 b 661 208 635 232 647 218 b 739 185 681 193 708 185 b 919 288 815 185 876 219 b 971 489 951 342 971 414 b 943 643 971 546 961 597 z m 517 290 b 436 408 444 290 436 372 b 457 500 436 442 443 476 b 528 543 472 529 496 543 b 594 511 557 543 579 533 b 613 429 606 492 613 464 b 593 335 613 403 608 363 b 517 290 576 306 550 290 z "},"ì":{"ha":1035,"x_min":0,"x_max":0,"o":""},"\"":{"ha":1672,"x_min":0,"x_max":0,"o":""},"%":{"ha":1153,"x_min":0,"x_max":0,"o":"m 1097 668 l 946 806 l 479 297 l 261 514 l 125 376 l 503 1 z "},".":{"ha":1063,"x_min":0,"x_max":0,"o":"m 438 69 b 344 -24 438 18 396 -24 b 251 69 293 -24 251 18 b 344 163 251 121 293 163 b 438 69 396 163 438 121 z m 888 69 b 794 -24 888 18 846 -24 b 703 69 744 -24 703 18 b 794 163 703 121 744 163 b 888 69 846 163 886 121 z m 881 653 l 279 696 b 103 810 249 785 169 810 b 82 808 92 810 83 808 b 39 761 82 808 39 808 b 149 700 39 688 103 713 b 194 628 178 692 194 628 b 293 275 194 628 293 275 b 347 228 297 249 321 228 l 878 228 b 935 285 910 228 935 253 l 935 597 b 881 653 935 628 911 651 z m 835 467 l 708 467 l 708 567 l 835 557 z m 525 467 l 525 579 l 664 569 l 664 467 z m 664 435 l 664 328 l 525 328 l 525 435 z m 481 582 l 481 467 l 344 467 l 303 593 z m 356 435 l 481 435 l 481 328 l 389 328 z m 708 328 l 708 435 l 835 435 l 835 328 z "},"/":{"ha":761,"x_min":0,"x_max":0,"o":"m 675 581 l 75 581 l 376 56 z "},"*":{"ha":1097,"x_min":0,"x_max":0,"o":"m 439 525 l 83 525 l 371 317 l 260 -22 l 549 186 l 836 -22 l 726 317 l 1014 525 l 658 525 l 549 861 z "},"&":{"ha":985,"x_min":0,"x_max":0,"o":""},":":{"ha":335,"x_min":0,"x_max":0,"o":"m 56 492 b 164 383 56 431 103 383 b 272 492 224 383 272 431 b 164 600 272 551 224 600 b 56 492 103 600 56 551 z m 56 101 b 164 -7 56 40 103 -7 b 272 101 224 -7 272 40 b 164 210 272 161 224 210 b 56 101 103 210 56 161 z "},";":{"ha":336,"x_min":0,"x_max":0,"o":"m 56 492 b 164 383 56 431 103 383 b 272 492 224 383 272 431 b 164 600 272 551 224 600 b 56 492 103 600 56 551 z m 56 -101 b 147 11 110 -75 139 -42 b 75 99 103 21 75 56 b 169 193 75 153 115 193 b 281 68 235 193 281 140 b 56 -114 281 -24 201 -119 z "},"Ä":{"ha":694,"x_min":0,"x_max":0,"o":""},"'":{"ha":1064,"x_min":0,"x_max":0,"o":"m 706 842 l 357 842 l 111 594 l 111 246 l 357 0 l 706 0 l 953 246 l 953 594 z m 915 261 l 690 38 l 372 38 l 149 261 l 149 579 l 372 804 l 690 804 l 915 579 z m 393 757 l 196 560 l 196 281 l 393 85 l 671 85 l 868 281 l 868 560 l 671 757 z "},"(":{"ha":1169,"x_min":0,"x_max":0,"o":"m 1096 536 l 1081 553 b 1033 557 1069 565 1047 569 b 992 575 1021 557 1004 563 b 965 674 965 604 983 656 b 892 747 957 682 924 715 b 507 828 857 782 761 893 l 508 796 b 725 708 508 796 635 797 b 726 640 725 708 758 672 b 714 626 718 631 714 626 l 714 626 l 697 610 l 800 508 b 829 538 800 508 822 532 b 922 519 846 556 889 554 b 938 464 946 497 950 472 b 949 422 931 454 936 433 l 965 404 b 1021 404 982 389 1006 389 l 1096 481 b 1096 536 1111 497 1111 521 z m 644 349 l 776 483 l 676 586 l 539 446 l 424 561 b 392 650 392 596 383 610 b 347 797 401 694 401 749 b 318 819 339 804 318 817 l 318 819 b 143 824 233 869 143 824 l 136 813 b 224 756 136 813 214 761 b 228 651 235 749 268 711 b 133 621 189 592 146 611 b 46 676 124 626 46 676 l 39 665 b 119 506 39 665 33 561 b 233 490 160 479 203 479 b 324 453 264 500 286 489 l 439 342 l 200 119 b 200 44 179 99 179 64 l 254 -11 b 329 -11 275 -32 310 -32 l 538 240 l 761 4 b 888 3 796 -32 851 -32 b 889 129 922 39 924 94 z m 857 33 b 790 35 839 14 810 17 b 790 100 774 51 774 82 b 857 100 810 118 839 118 b 857 33 875 82 875 50 z "},")":{"ha":818,"x_min":0,"x_max":0,"o":"m 618 293 b 613 294 615 293 614 293 b 599 269 610 285 604 278 b 556 238 589 256 576 247 b 515 229 540 232 528 229 b 476 238 501 229 489 232 b 457 221 471 232 465 225 b 406 207 442 213 425 207 b 353 221 385 207 367 213 b 331 238 344 225 338 232 b 294 229 322 232 308 229 b 253 238 282 229 268 232 b 210 269 235 247 219 256 b 199 294 204 278 200 285 b 197 293 199 294 199 294 l 67 44 l 201 35 l 294 -69 l 410 113 l 525 -69 l 613 33 l 751 44 l 621 293 b 618 293 619 293 619 293 z m 729 621 b 626 629 722 633 642 629 l 624 629 l 626 631 b 717 679 640 636 715 663 b 711 714 719 689 717 701 b 667 750 700 744 679 750 l 667 750 l 667 750 b 594 711 658 750 597 714 l 590 710 l 592 714 b 658 792 600 722 664 776 b 640 822 656 801 650 811 b 599 840 626 835 614 840 l 599 840 l 599 840 b 531 775 590 840 539 785 l 529 771 l 529 776 b 561 874 535 788 569 860 b 532 893 554 882 546 888 b 504 899 522 897 513 899 b 449 807 486 899 457 822 l 449 804 l 449 807 b 439 911 449 822 453 903 b 406 919 431 917 418 919 b 371 911 390 919 379 917 b 361 807 357 903 361 822 l 361 804 l 360 807 b 304 899 354 822 324 899 l 304 899 l 304 899 b 276 893 297 899 288 897 b 249 874 264 888 256 882 b 279 776 239 860 274 788 l 282 771 l 276 775 b 210 840 268 785 218 840 l 210 840 b 169 822 197 840 183 835 b 151 792 160 811 153 801 b 215 714 147 776 207 722 l 219 710 l 214 711 b 144 750 211 714 150 750 b 97 714 129 750 111 744 b 92 679 92 701 90 689 b 183 631 93 663 169 636 l 186 629 l 183 629 b 81 621 169 629 89 633 b 72 586 74 613 72 600 b 81 553 72 572 74 561 b 183 542 89 538 169 542 l 186 542 l 183 542 b 92 494 169 535 93 510 b 97 458 90 483 92 472 b 144 421 111 428 129 421 b 214 460 150 421 211 457 l 219 461 l 215 460 b 151 382 207 451 147 396 b 169 351 153 371 160 361 b 210 331 183 338 197 331 b 276 399 218 331 268 390 l 282 400 l 279 396 b 249 300 274 385 239 311 b 276 279 256 292 264 283 b 304 272 288 275 297 272 b 360 364 324 272 354 350 l 361 367 l 361 364 b 371 263 361 350 357 269 b 406 253 379 256 390 253 b 439 263 418 253 431 256 b 449 364 453 269 449 350 l 449 367 l 449 364 b 504 272 457 350 486 272 b 532 279 513 272 522 275 b 561 300 546 283 554 292 b 529 396 569 311 535 385 l 529 400 l 531 399 b 599 331 539 390 590 331 b 640 351 614 331 626 338 b 658 382 650 361 656 371 b 592 460 664 396 600 451 l 590 461 l 594 460 b 667 421 597 457 658 421 b 711 458 679 421 700 428 b 717 494 717 472 719 483 b 626 542 715 510 640 535 l 624 542 l 626 542 b 729 553 642 542 722 538 b 738 586 735 561 738 572 b 729 621 738 600 735 613 z m 406 371 b 188 586 286 371 188 468 b 406 803 188 706 286 803 b 619 586 524 803 619 706 b 406 371 619 468 524 371 z m 406 421 b 238 586 313 421 238 494 b 406 753 238 679 313 753 b 569 586 497 753 569 679 b 406 421 569 494 497 421 z "},"×":{"ha":904,"x_min":0,"x_max":0,"o":"m 249 689 l 114 551 l 315 353 l 113 150 l 249 14 l 450 217 l 651 14 l 789 149 l 586 353 l 788 551 l 651 689 l 450 488 z "}}}
